{"glyphs":{"0":{"ha":1011,"x_min":29,"x_max":968,"o":"m 703 617 q 712 615 710 617 q 717 606 714 614 l 717 118 q 699 100 717 100 l 211 100 l 204 107 q 200 118 200 114 q 207 133 200 122 l 692 617 l 703 617 m 411 286 l 393 267 l 385 286 l 411 286 m 682 558 l 411 286 l 682 286 l 682 558 m 157 174 q 151 174 153 174 q 140 171 149 174 l 129 185 l 129 672 q 147 689 129 689 l 632 688 q 640 684 636 688 q 644 672 644 681 l 643 663 l 310 326 l 157 174 m 315 382 l 585 654 l 315 654 l 315 382 m 46 0 q 29 18 29 0 l 29 772 l 31 782 l 188 939 q 192 940 189 939 q 197 940 194 940 l 958 940 l 968 928 l 968 168 q 964 156 968 160 l 813 6 q 804 0 810 1 l 46 0 m 63 35 l 783 35 l 783 754 l 63 754 l 63 35 z "},"1":{"ha":503,"x_min":25,"x_max":461,"o":"m 40 654 q 25 672 25 654 l 25 772 l 26 782 l 179 935 q 193 940 185 940 l 444 940 l 447 939 q 452 936 450 938 q 460 932 454 935 l 461 922 l 461 168 q 456 156 461 161 l 303 1 l 293 0 l 193 0 q 175 18 175 0 l 175 654 l 40 654 m 193 688 q 210 672 210 688 l 210 35 l 275 35 l 275 754 l 58 754 l 58 688 l 193 688 z "},"2":{"ha":1011,"x_min":26,"x_max":968,"o":"m 46 0 q 28 17 28 0 l 29 218 l 31 228 l 185 382 l 682 650 l 682 653 l 254 653 l 157 556 l 146 553 l 46 553 q 28 569 28 553 l 28 771 q 28 775 26 772 q 33 783 28 778 l 186 938 q 193 939 190 938 l 958 939 l 968 926 l 968 671 l 967 663 l 808 494 l 418 285 l 950 285 l 954 283 q 963 282 961 283 q 968 272 965 281 l 968 167 l 967 157 l 814 7 q 800 0 814 0 l 46 0 m 343 283 l 346 285 l 347 285 l 343 283 m 333 278 q 346 285 336 285 l 782 519 l 782 753 l 63 753 l 63 588 l 129 588 l 129 671 q 146 688 129 688 l 699 688 q 717 671 717 688 l 717 563 l 710 557 l 63 207 l 63 33 l 782 33 l 782 100 l 146 100 q 129 117 129 100 l 129 158 l 132 169 l 333 278 z "},"3":{"ha":1011,"x_min":29,"x_max":968,"o":"m 46 0 q 29 18 29 0 l 29 118 l 31 128 l 183 281 q 196 286 189 286 l 665 286 l 599 351 l 146 351 q 129 369 129 351 l 129 469 l 131 479 l 288 636 q 292 637 289 636 q 297 638 294 638 l 682 638 l 682 654 l 46 654 q 29 671 29 654 l 29 771 l 31 782 l 183 935 q 196 939 188 939 l 950 939 l 960 938 l 963 935 q 968 925 965 929 l 968 671 q 964 658 968 663 l 875 569 l 967 479 l 968 469 l 968 168 q 964 154 968 158 l 810 1 l 800 0 l 46 0 m 694 404 q 688 406 690 404 l 688 407 l 694 404 m 703 292 q 711 289 706 292 l 703 292 m 699 688 q 717 671 717 688 l 717 561 q 711 549 717 554 l 621 457 q 611 451 617 453 l 164 451 l 164 386 l 607 386 q 612 385 610 386 q 622 381 614 385 l 710 289 l 711 289 q 717 276 717 283 l 717 118 q 699 100 717 100 l 63 100 l 63 33 l 782 33 l 782 311 l 688 406 q 682 419 682 411 q 688 432 682 426 l 782 528 l 782 754 l 63 754 l 63 688 l 699 688 z "},"4":{"ha":804,"x_min":26,"x_max":764,"o":"m 44 351 q 26 369 26 351 l 26 771 l 28 782 l 182 935 q 194 939 186 939 l 303 939 l 313 926 l 313 638 l 479 638 l 479 771 l 481 782 l 636 935 l 635 933 q 647 939 640 939 l 749 939 l 763 936 l 764 921 l 764 168 q 760 154 764 158 l 607 1 q 602 1 606 1 q 596 0 599 0 l 496 0 q 479 17 479 0 l 479 351 l 44 351 m 514 753 l 514 469 q 496 451 514 451 l 136 451 q 126 465 131 456 l 126 753 l 61 753 l 61 386 l 496 386 q 514 369 514 386 l 514 33 l 581 33 l 581 753 l 514 753 z "},"5":{"ha":1011,"x_min":31,"x_max":971,"o":"m 47 0 q 31 17 31 0 l 31 218 l 32 228 l 128 324 l 47 324 q 31 340 31 324 l 31 771 l 32 781 l 188 936 q 189 938 188 938 q 194 939 192 938 l 961 939 q 966 933 964 936 q 971 925 968 931 l 971 817 l 968 814 q 966 810 967 813 q 964 807 965 808 l 814 658 q 811 656 813 656 q 806 653 810 656 l 317 653 l 317 610 l 853 610 l 863 608 l 965 504 l 971 496 l 971 163 l 968 160 q 966 156 967 158 q 964 153 965 154 l 811 1 q 808 0 810 0 l 803 0 l 47 0 m 660 358 l 669 357 l 714 311 q 715 308 714 310 q 718 299 718 303 l 718 117 q 701 100 718 100 l 140 100 q 135 105 138 103 q 131 114 133 107 l 131 201 l 65 201 l 65 33 l 785 33 l 785 333 q 738 379 761 357 q 693 425 715 401 l 146 425 q 131 438 135 425 l 131 671 q 149 688 131 688 l 785 688 l 785 753 l 65 753 l 65 358 l 660 358 m 317 324 l 317 285 l 685 285 l 685 292 l 651 324 l 317 324 z "},"6":{"ha":1011,"x_min":32,"x_max":972,"o":"m 719 118 q 703 100 719 100 l 147 101 q 132 114 136 101 l 132 342 q 150 360 132 360 l 661 360 q 665 358 663 358 q 669 357 668 357 q 674 354 671 357 l 719 308 l 719 118 m 318 324 l 318 286 l 686 286 l 686 292 l 653 324 l 318 324 m 804 0 l 49 0 q 32 18 32 0 l 32 772 l 33 782 l 185 932 q 196 940 185 938 l 954 940 l 958 940 q 964 938 961 940 q 969 935 968 938 q 972 926 969 933 l 972 822 q 967 810 972 821 l 813 656 l 811 656 q 810 655 810 656 q 808 654 810 654 l 318 654 l 318 611 l 857 611 q 861 608 858 610 q 865 606 864 607 q 868 604 865 606 l 964 507 q 969 505 968 507 q 972 497 969 503 l 972 168 q 967 156 972 167 l 818 8 q 807 1 818 1 l 804 0 m 786 35 l 786 333 l 694 425 l 142 425 l 132 438 l 132 672 q 150 688 132 688 l 786 688 l 786 754 l 67 754 l 67 35 l 786 35 z "},"7":{"ha":907,"x_min":26,"x_max":865,"o":"m 44 654 q 26 672 26 654 l 26 772 l 28 782 l 181 932 q 192 940 181 938 l 850 939 q 865 922 865 939 l 865 715 l 508 154 l 356 1 l 346 0 l 226 0 q 219 1 221 0 q 210 10 217 3 l 210 24 l 390 307 l 256 307 q 240 324 240 307 l 240 425 l 242 435 l 397 592 q 404 593 400 592 l 572 593 q 576 599 575 596 q 581 604 578 601 l 581 654 l 44 654 m 258 35 l 336 35 l 681 575 l 681 754 l 61 754 l 61 688 l 597 688 q 614 672 614 688 l 614 600 l 613 593 l 494 408 l 486 407 l 274 407 l 274 342 q 349 341 310 342 q 424 340 388 340 l 438 339 l 439 324 l 438 318 l 258 35 z "},"8":{"ha":1011,"x_min":29,"x_max":968,"o":"m 715 288 q 717 281 715 285 l 717 118 q 699 100 717 100 l 147 100 l 131 103 l 129 118 l 129 276 l 131 288 l 228 385 l 231 385 q 235 386 233 385 l 608 386 l 618 385 l 715 288 m 665 286 l 600 351 l 315 351 l 315 286 l 665 286 m 121 419 l 31 510 l 31 513 q 30 515 31 514 q 29 517 29 515 l 29 772 l 31 782 l 183 935 q 193 940 186 938 l 850 940 l 953 939 q 968 922 968 939 l 968 672 l 967 661 l 875 569 l 964 482 q 965 479 964 481 q 968 469 968 474 l 968 168 l 967 158 l 810 1 q 804 0 808 1 l 46 0 q 29 18 29 0 l 29 319 l 31 329 l 121 419 m 160 433 q 164 419 164 429 q 160 407 164 411 l 63 311 l 63 35 l 783 35 l 783 311 l 688 407 q 683 416 685 410 q 688 433 682 422 l 783 528 l 783 754 l 63 754 l 63 528 l 160 433 m 131 551 l 131 553 q 130 555 131 554 q 129 558 129 556 l 129 672 q 147 688 129 688 l 699 688 q 717 672 717 688 l 717 561 l 715 553 l 621 457 q 617 453 618 454 q 608 453 615 453 l 238 453 l 228 454 l 179 503 l 131 551 m 683 654 l 315 654 l 315 638 l 683 638 l 683 654 z "},"9":{"ha":1011,"x_min":25,"x_max":964,"o":"m 694 686 q 713 671 713 686 l 713 440 q 694 424 713 424 l 143 424 l 126 426 l 125 440 l 125 671 q 143 686 125 686 l 694 686 m 679 610 l 679 653 l 311 653 l 311 610 l 679 610 m 796 -1 l 43 -1 q 25 17 25 -1 l 25 117 l 26 126 l 182 283 q 189 285 185 283 l 679 285 l 679 324 l 43 324 q 25 340 25 324 l 25 771 l 26 781 l 179 933 q 189 939 182 936 l 949 938 q 964 921 964 938 l 964 167 l 963 157 l 807 0 l 796 -1 m 58 33 l 779 33 l 779 753 l 58 753 l 58 358 l 694 358 q 713 340 713 358 l 713 117 q 694 99 713 99 l 58 99 l 58 33 z "},"\u0000":{"ha":0,"x_min":0,"x_max":0,"o":""},"\r":{"ha":594,"x_min":0,"x_max":0,"o":""}," ":{"ha":594,"x_min":0,"x_max":0,"o":""},"E":{"ha":1011,"x_min":28,"x_max":967,"o":"m 46 0 q 28 18 28 0 l 28 772 l 29 782 l 181 932 q 192 940 181 938 l 953 939 q 967 922 967 939 l 967 822 l 965 811 l 810 656 l 807 656 q 805 655 806 656 q 803 654 804 654 l 314 654 l 314 638 l 765 638 q 770 633 768 635 q 775 624 772 631 l 775 519 l 772 510 l 621 358 q 607 353 619 353 l 314 353 l 314 286 l 697 286 l 953 285 q 967 268 967 285 l 967 168 l 965 158 l 807 0 l 46 0 m 63 35 l 782 35 l 782 100 l 146 100 q 141 101 143 100 q 131 107 139 101 q 129 108 129 107 q 128 110 129 110 q 128 114 128 111 l 128 369 q 146 386 128 386 l 589 386 l 589 453 l 146 453 l 129 454 q 129 463 129 461 q 128 467 129 464 l 128 672 q 146 688 128 688 l 782 688 l 782 754 l 63 754 l 63 35 z "},"F":{"ha":1011,"x_min":31,"x_max":969,"o":"m 47 0 q 31 18 31 0 l 31 772 l 32 782 l 185 935 q 194 940 188 938 l 954 939 q 969 926 965 939 l 969 822 l 968 811 l 811 656 q 808 654 810 654 l 801 654 l 315 654 l 315 638 l 760 638 l 769 635 q 772 631 771 633 q 775 625 774 628 q 776 619 776 622 l 776 519 l 775 510 l 622 357 q 613 351 618 353 l 315 351 l 315 168 l 314 158 l 156 0 l 47 0 m 64 35 l 131 35 l 131 369 q 147 386 131 386 l 592 386 l 592 453 l 147 453 l 132 454 l 131 469 l 131 671 q 147 688 131 688 l 785 688 l 785 754 l 64 754 l 64 35 z "},"G":{"ha":1011,"x_min":26,"x_max":965,"o":"m 44 0 q 26 18 26 0 l 26 772 l 28 782 l 181 933 q 194 940 185 940 l 949 940 l 953 940 q 958 938 956 940 q 965 922 965 938 l 965 722 q 961 708 965 713 l 808 556 q 804 555 807 556 q 799 554 801 554 l 697 554 q 681 569 681 554 l 681 654 l 313 654 l 313 286 l 378 286 l 378 319 q 383 331 378 325 l 533 483 q 546 488 538 488 l 949 488 q 953 487 951 488 q 964 482 956 486 l 964 479 q 965 474 964 475 l 965 168 q 961 156 965 160 l 806 0 l 44 0 m 60 35 l 781 35 l 781 301 l 413 301 l 413 236 l 697 236 q 714 218 714 236 l 714 118 q 697 100 714 100 l 142 101 q 126 114 131 101 l 126 672 q 144 688 126 688 l 697 688 q 714 672 714 688 l 714 588 l 781 588 l 781 754 l 60 754 l 60 35 z "},"H":{"ha":1011,"x_min":31,"x_max":971,"o":"m 47 0 q 31 17 31 0 l 31 771 q 36 785 31 779 l 186 935 q 199 939 190 939 l 307 939 l 317 928 l 317 638 l 685 638 l 685 771 l 686 782 l 843 938 l 853 939 l 961 939 q 963 936 961 938 q 971 925 963 936 l 971 168 q 965 154 971 160 l 811 1 l 803 0 l 701 0 q 685 17 685 0 l 685 351 l 317 351 l 317 168 q 316 163 317 165 q 315 157 315 160 l 157 0 l 47 0 m 65 33 l 131 33 l 131 369 q 149 386 131 386 l 701 386 q 718 369 718 386 l 718 33 l 785 33 l 785 754 l 718 754 l 718 469 q 701 451 718 451 l 146 453 q 131 465 135 453 l 131 754 l 65 754 l 65 33 z "},"I":{"ha":356,"x_min":28,"x_max":314,"o":"m 314 922 l 314 168 q 308 156 314 161 l 161 8 q 159 3 161 4 q 150 0 157 3 l 46 0 q 28 18 28 0 l 28 772 l 29 782 l 182 935 q 196 940 188 940 l 296 940 q 303 940 301 940 q 308 935 304 939 l 310 933 l 314 922 m 61 35 l 128 35 l 128 754 l 61 754 l 61 35 z "},"J":{"ha":804,"x_min":24,"x_max":763,"o":"m 594 0 l 42 0 q 24 18 24 0 l 24 218 q 24 223 24 221 q 31 233 25 225 l 179 382 q 192 386 183 386 l 292 386 q 304 382 300 386 q 306 379 304 381 q 310 374 308 376 l 310 286 l 476 286 l 476 772 l 478 782 l 632 935 q 640 940 635 938 l 746 940 l 749 939 q 754 936 751 938 q 761 932 757 935 l 763 922 l 763 168 q 757 156 763 161 l 607 6 q 596 1 603 1 l 594 0 m 58 35 l 578 35 l 578 754 l 511 754 l 511 118 q 493 100 511 100 l 142 100 q 132 103 135 100 q 124 114 126 103 l 124 201 l 58 201 l 58 35 z "},"K":{"ha":1011,"x_min":25,"x_max":964,"o":"m 42 0 q 25 18 25 0 l 25 772 l 26 782 l 179 935 q 193 940 185 940 l 293 940 q 297 939 294 940 q 302 936 300 938 q 310 932 304 935 l 311 922 l 311 638 l 678 638 l 678 772 q 678 776 676 774 q 683 785 678 779 l 833 935 l 831 928 q 835 934 832 931 q 843 940 838 938 l 949 939 q 964 926 960 939 l 964 672 q 960 658 964 663 l 871 571 l 963 479 l 964 469 l 964 168 q 960 156 964 160 l 807 3 l 796 0 l 694 0 q 678 18 678 0 l 678 264 q 636 308 657 288 q 594 353 615 329 l 311 353 l 311 168 q 306 156 311 161 l 150 0 l 42 0 m 711 276 q 713 274 711 275 l 713 35 l 779 35 l 779 311 l 683 407 q 683 433 668 418 l 779 528 l 779 754 l 713 754 l 713 571 q 712 566 713 568 q 711 561 711 564 l 613 454 q 607 453 611 454 l 143 453 l 132 454 q 128 458 129 456 q 125 469 125 464 l 125 754 l 58 754 l 58 35 l 125 35 l 125 369 q 143 386 125 386 l 604 386 l 613 383 l 711 276 z "},"L":{"ha":796,"x_min":25,"x_max":763,"o":"m 43 0 q 25 18 25 0 l 25 772 l 26 782 l 179 935 q 193 940 185 940 l 296 939 q 311 926 307 939 l 311 286 l 644 286 l 749 285 q 763 272 758 285 l 763 168 q 758 156 763 160 l 603 0 l 43 0 m 58 35 l 579 35 l 579 100 l 143 100 q 138 101 140 100 q 128 107 136 101 q 126 108 126 107 q 126 110 126 110 q 125 114 125 111 l 125 754 l 58 754 l 58 35 z "},"M":{"ha":1054,"x_min":26,"x_max":1017,"o":"m 313 240 l 313 168 q 312 163 313 167 q 311 157 311 160 l 154 1 l 144 0 l 44 0 q 26 18 26 0 l 26 775 q 29 779 28 776 q 31 783 31 782 q 33 786 32 783 l 179 932 q 194 939 179 939 l 296 939 l 307 936 l 565 486 l 735 785 l 883 932 q 899 939 885 939 l 999 939 l 1014 938 l 1017 922 l 1017 168 q 1011 154 1017 160 l 858 1 l 849 0 l 749 0 q 731 18 731 0 l 731 390 l 610 181 l 460 29 q 446 25 458 25 l 433 28 l 313 240 m 61 33 l 126 33 l 126 575 l 136 585 l 146 586 l 157 583 l 311 314 l 446 76 l 738 585 l 750 586 l 764 583 l 765 568 l 765 33 l 831 33 l 831 754 l 760 754 l 457 231 q 451 227 454 228 q 433 226 449 226 q 432 233 433 232 l 133 754 l 61 754 l 61 33 z "},"N":{"ha":1011,"x_min":31,"x_max":969,"o":"m 953 938 l 968 935 l 969 919 l 969 167 q 965 153 969 157 l 811 0 q 808 -1 810 -1 l 803 -1 l 700 -1 l 693 0 l 317 413 l 317 167 q 311 153 317 158 l 158 0 l 149 -1 l 47 -1 q 31 15 31 -1 l 31 769 l 32 781 l 183 931 q 199 938 185 938 l 300 938 l 308 936 l 685 524 l 685 769 l 686 781 l 840 933 l 839 932 q 844 936 842 935 q 853 938 846 938 l 953 938 m 65 32 l 131 32 l 131 619 l 133 636 q 142 636 140 636 q 146 638 143 636 l 157 636 l 708 32 l 785 32 l 785 751 l 718 751 l 718 164 l 717 149 q 708 149 710 149 q 704 147 707 149 l 693 149 l 142 751 l 65 751 l 65 32 z "},"O":{"ha":1011,"x_min":26,"x_max":965,"o":"m 696 688 q 714 672 714 688 l 714 118 q 696 100 714 100 l 142 101 q 126 114 131 101 l 126 672 q 143 688 126 688 l 696 688 m 679 654 l 311 654 l 311 286 l 679 286 l 679 654 m 181 935 q 194 940 186 940 l 947 940 q 953 940 950 940 q 964 932 957 939 l 965 922 l 965 168 q 961 156 965 160 l 810 6 q 801 0 807 1 l 43 0 q 26 18 26 0 l 26 781 l 181 935 m 60 35 l 779 35 l 779 754 l 60 754 l 60 35 z "},"P":{"ha":1011,"x_min":28,"x_max":967,"o":"m 128 672 q 146 688 128 688 l 697 688 q 715 672 715 688 l 715 481 q 715 476 715 479 q 714 472 714 474 l 619 368 q 610 363 615 364 l 143 364 l 128 367 l 128 672 m 681 654 l 313 654 l 313 549 l 681 549 l 681 654 m 44 0 q 28 18 28 0 l 28 772 l 29 782 l 182 935 q 196 940 188 940 l 949 940 q 955 940 951 940 q 965 932 958 939 l 967 922 l 967 581 q 963 568 967 572 l 657 264 l 656 264 q 653 263 654 264 q 651 263 653 263 l 313 258 l 313 168 q 308 156 313 160 l 153 0 l 44 0 m 61 35 l 128 35 l 128 279 q 146 297 128 297 l 639 297 l 782 439 l 782 754 l 61 754 l 61 35 z "},"Q":{"ha":1011,"x_min":28,"x_max":967,"o":"m 46 0 q 28 17 28 0 l 28 771 l 29 782 l 182 935 q 196 939 186 939 l 950 939 l 965 936 l 967 921 l 967 168 q 963 154 967 158 l 807 0 l 46 0 m 61 33 l 782 33 l 782 753 l 61 753 l 61 33 m 697 688 q 715 671 715 688 l 715 117 q 697 100 715 100 l 647 100 l 638 103 l 489 301 l 429 301 q 497 212 461 257 q 564 124 532 167 l 565 117 l 563 107 q 553 101 557 101 q 547 100 550 100 l 138 100 l 128 111 l 128 671 q 146 688 128 688 l 697 688 m 682 453 l 682 653 l 314 653 l 314 285 l 399 285 q 390 297 396 290 q 381 310 383 304 l 379 319 l 382 328 l 535 482 q 547 488 540 488 l 649 488 l 653 488 q 655 487 654 488 q 657 486 656 486 l 682 453 z "},"R":{"ha":1011,"x_min":28,"x_max":967,"o":"m 951 939 q 967 926 963 939 l 967 581 q 963 568 967 572 l 819 426 q 893 299 856 363 q 967 171 931 235 l 965 158 l 808 1 l 799 0 l 683 0 q 677 1 681 0 q 668 10 674 3 l 521 263 l 313 258 l 313 168 q 308 156 313 160 l 158 6 q 149 0 154 1 l 44 0 q 28 18 28 0 l 28 772 l 29 782 l 182 935 q 196 940 188 940 l 849 940 l 951 939 m 768 35 l 632 272 l 631 279 q 635 292 631 286 l 781 439 l 781 754 l 61 754 l 61 35 l 128 35 l 128 279 q 144 297 128 297 l 533 296 l 544 293 l 692 35 l 768 35 m 619 368 q 610 363 615 364 l 143 364 q 128 376 132 364 l 128 672 q 144 688 128 688 l 697 688 q 715 672 715 688 l 715 481 q 715 476 715 479 q 714 472 714 474 l 619 368 m 681 654 l 313 654 l 313 549 l 681 549 l 681 654 z "},"S":{"ha":1011,"x_min":29,"x_max":969,"o":"m 867 610 l 960 610 q 965 605 963 607 q 969 596 967 603 l 969 163 l 967 160 q 965 156 965 158 q 963 153 964 154 l 815 7 q 801 0 815 0 l 46 0 q 29 17 29 0 l 29 218 l 31 228 l 126 324 l 46 324 q 29 340 29 324 l 29 771 l 31 781 l 186 936 q 188 938 186 938 q 193 939 190 938 l 960 939 q 965 933 963 936 q 969 925 967 931 l 969 721 q 964 708 969 714 l 867 610 m 315 324 l 315 285 l 683 285 l 683 324 l 315 324 m 64 33 l 783 33 l 783 425 l 147 425 l 143 426 q 134 428 136 426 q 129 438 132 429 l 129 671 q 147 688 129 688 l 700 688 q 717 671 717 688 l 717 588 l 783 588 l 783 753 l 64 753 l 64 358 l 700 358 q 717 340 717 358 l 717 117 q 700 100 717 100 l 139 100 q 134 105 136 103 q 129 114 132 107 l 129 201 l 64 201 l 64 33 m 315 653 l 315 610 l 683 610 l 683 653 l 315 653 z "},"T":{"ha":889,"x_min":22,"x_max":849,"o":"m 849 819 l 847 810 l 692 654 l 681 651 l 579 651 l 579 168 q 578 161 579 163 q 574 156 578 160 l 421 1 l 419 1 q 417 1 418 1 q 415 0 417 0 l 310 0 q 293 18 293 0 l 293 651 l 39 651 q 22 669 22 651 l 22 772 l 24 782 l 178 935 l 175 928 q 179 934 176 931 q 188 940 182 938 l 835 939 q 840 938 839 939 q 849 931 842 938 l 849 819 m 57 686 l 310 686 q 326 669 326 686 l 326 35 l 393 35 l 393 669 q 411 686 393 686 l 664 686 l 664 754 l 57 754 l 57 686 z "},"U":{"ha":1011,"x_min":31,"x_max":969,"o":"m 32 782 l 185 935 q 199 940 190 940 l 299 940 l 303 940 q 308 938 306 940 q 313 935 313 938 q 317 926 314 933 l 317 286 l 685 286 l 685 772 l 686 782 l 839 935 q 849 940 842 938 l 953 940 l 957 938 q 968 935 967 938 q 969 922 969 933 l 969 168 q 965 156 969 160 l 811 1 q 806 0 810 1 l 47 0 q 31 18 31 0 l 31 772 l 32 782 m 64 35 l 785 35 l 785 754 l 718 754 l 718 118 q 700 100 718 100 l 146 101 q 131 114 135 101 l 131 754 l 64 754 l 64 35 z "},"V":{"ha":1011,"x_min":31,"x_max":969,"o":"m 32 342 l 31 351 l 31 769 l 32 781 l 186 933 l 185 932 q 190 936 188 935 q 199 938 192 938 l 307 938 q 312 933 310 935 q 317 924 314 931 l 317 553 l 576 293 l 685 401 l 685 769 l 686 781 l 842 936 l 844 936 q 849 938 847 936 l 960 938 l 969 926 l 969 501 l 968 493 l 475 0 l 472 0 q 470 -1 471 0 q 468 -1 469 -1 l 383 -1 l 374 0 l 32 342 m 442 108 q 424 99 439 99 q 407 108 410 99 q 374 141 396 119 q 325 190 351 163 q 269 246 299 217 q 213 302 239 275 q 165 351 186 329 q 132 383 143 372 l 131 393 l 131 753 l 64 753 l 64 360 l 392 32 l 458 32 l 785 360 l 785 753 l 718 753 l 718 393 l 717 383 l 442 108 z "},"W":{"ha":1183,"x_min":24,"x_max":1143,"o":"m 24 354 l 24 772 l 25 782 l 178 935 q 188 940 181 938 l 294 939 q 310 926 306 939 l 310 538 q 365 447 340 489 q 421 357 390 406 l 440 386 l 440 775 q 442 779 440 776 q 444 783 443 782 q 446 786 444 783 l 593 932 q 604 940 593 938 l 711 939 q 726 926 722 939 l 726 538 q 782 447 757 489 q 839 357 807 406 l 857 386 l 857 772 l 858 782 l 1013 935 q 1022 940 1015 938 l 1129 939 q 1143 922 1143 939 l 1143 499 l 928 154 l 776 1 l 767 0 l 667 0 q 654 4 658 0 l 536 193 l 513 156 l 358 1 l 349 0 l 249 0 q 244 0 247 -1 q 235 6 243 0 l 26 344 l 35 339 l 24 354 m 310 113 q 299 110 307 110 q 293 110 294 110 q 285 115 292 111 l 125 376 l 124 382 l 124 754 l 57 754 l 57 358 q 158 197 108 275 q 260 35 208 118 l 339 35 l 497 289 l 508 289 l 518 286 l 553 235 l 675 35 l 756 35 l 958 358 l 958 754 l 892 754 l 892 382 l 890 376 l 728 111 l 725 111 q 722 110 724 111 q 719 110 721 110 q 704 114 708 110 l 542 376 l 540 382 l 540 754 l 475 754 l 475 383 q 471 371 475 375 l 472 374 l 436 315 l 310 113 z "},"X":{"ha":1011,"x_min":29,"x_max":968,"o":"m 46 0 q 29 17 29 0 l 29 319 l 31 328 l 121 419 l 31 508 l 31 510 q 30 512 31 511 q 29 515 29 513 l 29 771 l 31 782 l 185 935 l 183 933 q 188 938 186 936 q 197 939 190 939 l 306 939 q 310 934 308 936 q 315 925 313 932 l 315 638 l 683 638 l 683 771 l 685 782 l 839 935 l 838 933 q 842 938 840 936 q 851 939 844 939 l 951 939 l 967 938 l 967 932 q 968 925 967 926 l 968 671 l 967 661 l 875 569 l 967 479 l 968 469 l 968 168 l 967 157 l 810 1 q 807 0 808 0 l 801 0 l 699 0 q 683 17 683 0 l 683 268 l 600 351 l 315 351 l 315 168 q 315 162 315 165 q 310 154 314 158 l 156 0 l 46 0 m 160 432 q 158 406 174 415 l 63 311 l 63 33 l 129 33 l 129 276 l 131 288 l 225 382 q 235 386 228 383 l 611 386 q 615 383 613 385 q 622 381 621 381 l 713 289 q 714 286 713 288 q 717 276 717 281 l 717 33 l 783 33 l 783 311 l 689 406 q 688 432 669 414 l 783 528 l 783 754 l 717 754 l 717 561 l 715 551 l 621 457 q 617 454 619 454 q 611 451 615 454 l 239 451 q 225 457 231 451 l 179 503 l 131 551 q 129 558 131 554 l 129 754 l 63 754 l 63 528 l 160 432 z "},"Y":{"ha":1011,"x_min":31,"x_max":971,"o":"m 953 939 l 957 938 q 966 936 964 938 q 971 926 968 935 l 971 671 l 969 661 l 814 507 l 667 360 q 665 355 667 356 q 656 351 663 354 l 643 351 l 643 168 l 642 157 l 486 1 q 481 1 485 1 q 475 0 478 0 l 375 0 q 357 17 357 0 l 357 351 l 199 351 q 194 351 197 350 q 186 357 192 351 l 39 504 q 31 515 33 504 l 31 771 q 31 776 31 774 q 38 786 32 778 l 189 938 l 199 939 l 299 939 l 303 938 q 312 936 310 938 q 317 926 314 935 l 317 721 l 400 638 l 685 638 l 685 771 q 690 785 685 779 l 843 938 l 853 939 l 953 939 m 785 528 l 785 754 l 719 754 l 719 561 q 719 557 719 558 q 713 547 718 556 l 624 457 q 614 451 619 453 l 240 451 q 228 457 233 451 l 136 549 q 131 558 132 551 l 131 754 l 65 754 l 65 528 l 207 386 l 375 386 q 393 369 393 386 l 393 33 l 458 33 l 458 369 q 475 386 458 386 l 643 386 l 785 528 z "},"Z":{"ha":1011,"x_min":29,"x_max":969,"o":"m 182 932 q 193 940 182 938 l 956 939 l 957 939 q 959 938 958 939 q 961 938 960 938 q 966 935 965 938 q 969 926 967 933 l 969 722 q 969 716 969 719 q 964 708 968 713 l 811 557 l 422 286 l 743 286 l 840 385 q 847 386 843 385 l 960 386 q 965 381 963 383 q 969 374 967 379 l 969 168 q 969 161 969 163 q 964 156 968 160 l 810 1 l 806 0 l 46 0 q 29 18 29 0 l 29 171 l 32 181 l 186 336 l 644 654 l 256 654 l 157 556 l 147 554 l 46 554 q 29 569 29 554 l 29 775 q 32 779 31 776 q 34 783 33 782 q 36 786 35 783 l 182 932 m 783 581 l 783 754 l 64 754 l 64 588 l 129 588 l 129 671 q 147 688 129 688 l 700 688 q 717 671 717 688 l 717 621 l 714 611 l 64 160 l 64 33 l 783 33 l 783 201 l 717 201 l 717 118 q 700 100 717 100 l 147 100 q 142 101 144 100 q 131 108 140 101 l 131 119 l 132 131 l 783 581 z "},"a":{"ha":1011,"x_min":29,"x_max":968,"o":"m 147 401 q 138 404 140 401 q 129 415 132 406 l 129 671 q 147 688 129 688 l 699 688 q 717 671 717 688 l 717 419 q 699 401 717 401 l 147 401 m 683 653 l 315 653 l 315 588 l 683 588 l 683 653 m 46 0 q 29 17 29 0 l 29 771 l 31 782 l 182 932 q 197 939 183 939 l 965 939 l 965 933 q 968 925 965 928 l 968 168 q 964 154 968 158 l 810 1 q 807 0 808 0 l 801 0 l 699 0 q 683 17 683 0 l 683 301 l 315 301 l 315 168 q 310 154 315 160 l 156 0 l 46 0 m 64 33 l 129 33 l 129 319 q 147 336 129 336 l 699 336 q 717 319 717 336 l 717 33 l 783 33 l 783 754 l 64 754 l 64 33 z "},"b":{"ha":1011,"x_min":26,"x_max":965,"o":"m 797 0 l 43 0 q 26 18 26 0 l 26 772 l 28 782 l 181 935 q 193 940 186 940 l 958 940 l 958 939 l 963 939 l 965 922 l 965 672 q 961 658 965 663 l 872 571 l 961 482 q 965 469 965 475 l 965 168 q 961 156 965 160 l 810 6 q 800 1 807 1 l 797 0 m 60 35 l 779 35 l 779 311 l 685 407 q 679 419 679 413 q 685 433 679 428 l 779 528 l 779 754 l 60 754 l 60 35 m 708 290 q 714 278 714 285 l 714 118 q 696 100 714 100 l 142 101 q 126 114 131 101 l 126 369 q 143 386 126 386 l 604 386 l 615 385 l 708 290 m 311 353 l 311 286 l 663 286 l 596 353 l 311 353 m 140 454 q 131 456 133 454 q 126 465 129 457 l 126 672 q 143 688 126 688 l 696 688 q 714 672 714 688 l 714 561 q 708 550 714 556 l 615 454 q 610 453 614 454 q 604 453 607 453 l 143 453 l 140 454 m 679 654 l 311 654 l 311 638 l 679 638 l 679 654 z "},"c":{"ha":1011,"x_min":26,"x_max":965,"o":"m 797 0 l 43 0 q 26 18 26 0 l 26 772 l 28 782 l 181 935 q 194 940 186 940 l 951 940 q 956 938 953 939 q 959 935 958 936 q 963 933 960 935 q 964 932 964 933 q 965 926 964 928 l 965 722 q 961 708 965 713 l 808 556 q 803 555 807 556 q 797 554 800 554 l 696 554 q 679 571 679 554 l 679 654 l 313 654 l 313 286 l 739 286 l 835 382 q 847 386 839 386 l 949 386 l 964 383 l 965 369 l 965 168 q 961 156 965 160 l 810 6 q 800 1 807 1 l 797 0 m 60 35 l 781 35 l 781 201 l 714 201 l 714 118 q 696 100 714 100 l 144 100 q 138 101 142 100 q 128 108 135 101 l 126 118 l 126 672 q 144 688 126 688 l 696 688 q 714 672 714 688 l 714 588 l 781 588 l 781 754 l 60 754 l 60 35 z "},"d":{"ha":1011,"x_min":29,"x_max":968,"o":"m 586 106 q 576 100 582 101 l 144 101 q 129 114 133 101 l 129 672 q 147 688 129 688 l 575 688 l 582 686 l 715 540 l 717 532 l 717 258 l 715 250 l 586 106 m 315 654 l 315 286 l 683 286 l 683 525 l 567 654 l 315 654 m 46 0 q 29 18 29 0 l 29 772 l 31 782 l 183 933 q 197 940 188 940 l 757 940 q 761 938 758 939 q 765 935 764 936 q 768 933 765 935 l 967 732 l 968 722 l 968 369 l 967 360 l 813 206 l 813 207 l 633 10 q 622 0 633 4 l 46 0 m 64 35 l 611 35 l 783 225 l 783 564 l 611 754 l 64 754 l 64 35 z "},"e":{"ha":1011,"x_min":28,"x_max":967,"o":"m 46 0 q 28 18 28 0 l 28 772 l 29 782 l 181 932 q 192 940 181 938 l 953 939 q 967 922 967 939 l 967 822 l 965 811 l 810 656 l 807 656 q 805 655 806 656 q 803 654 804 654 l 314 654 l 314 638 l 765 638 q 770 633 768 635 q 775 624 772 631 l 775 519 l 772 510 l 621 358 q 607 353 619 353 l 314 353 l 314 286 l 697 286 l 953 285 q 967 268 967 285 l 967 168 l 965 158 l 807 0 l 46 0 m 63 35 l 782 35 l 782 100 l 146 100 q 141 101 143 100 q 131 107 139 101 q 129 108 129 107 q 128 110 129 110 q 128 114 128 111 l 128 369 q 146 386 128 386 l 589 386 l 589 453 l 146 453 l 129 454 q 129 463 129 461 q 128 467 129 464 l 128 672 q 146 688 128 688 l 782 688 l 782 754 l 63 754 l 63 35 z "},"f":{"ha":1011,"x_min":31,"x_max":969,"o":"m 47 0 q 31 18 31 0 l 31 772 l 32 782 l 185 935 q 194 940 188 938 l 954 939 q 969 926 965 939 l 969 822 l 968 811 l 811 656 q 808 654 810 654 l 801 654 l 315 654 l 315 638 l 760 638 l 769 635 q 772 631 771 633 q 775 625 774 628 q 776 619 776 622 l 776 519 l 775 510 l 622 357 q 613 351 618 353 l 315 351 l 315 168 l 314 158 l 156 0 l 47 0 m 64 35 l 131 35 l 131 369 q 147 386 131 386 l 592 386 l 592 453 l 147 453 l 132 454 l 131 469 l 131 671 q 147 688 131 688 l 785 688 l 785 754 l 64 754 l 64 35 z "},"g":{"ha":1011,"x_min":26,"x_max":965,"o":"m 44 0 q 26 18 26 0 l 26 772 l 28 782 l 181 933 q 194 940 185 940 l 949 940 l 953 940 q 958 938 956 940 q 965 922 965 938 l 965 722 q 961 708 965 713 l 808 556 q 804 555 807 556 q 799 554 801 554 l 697 554 q 681 569 681 554 l 681 654 l 313 654 l 313 286 l 378 286 l 378 319 q 383 331 378 325 l 533 483 q 546 488 538 488 l 949 488 q 953 487 951 488 q 964 482 956 486 l 964 479 q 965 474 964 475 l 965 168 q 961 156 965 160 l 806 0 l 44 0 m 60 35 l 781 35 l 781 301 l 413 301 l 413 236 l 697 236 q 714 218 714 236 l 714 118 q 697 100 714 100 l 142 101 q 126 114 131 101 l 126 672 q 144 688 126 688 l 697 688 q 714 672 714 688 l 714 588 l 781 588 l 781 754 l 60 754 l 60 35 z "},"h":{"ha":1011,"x_min":31,"x_max":971,"o":"m 47 0 q 31 17 31 0 l 31 771 q 36 785 31 779 l 186 935 q 199 939 190 939 l 307 939 l 317 928 l 317 638 l 685 638 l 685 771 l 686 782 l 843 938 l 853 939 l 961 939 q 963 936 961 938 q 971 925 963 936 l 971 168 q 965 154 971 160 l 811 1 l 803 0 l 701 0 q 685 17 685 0 l 685 351 l 317 351 l 317 168 q 316 163 317 165 q 315 157 315 160 l 157 0 l 47 0 m 65 33 l 131 33 l 131 369 q 149 386 131 386 l 701 386 q 718 369 718 386 l 718 33 l 785 33 l 785 754 l 718 754 l 718 469 q 701 451 718 451 l 146 453 q 131 465 135 453 l 131 754 l 65 754 l 65 33 z "},"i":{"ha":356,"x_min":28,"x_max":314,"o":"m 314 922 l 314 168 q 308 156 314 161 l 161 8 q 159 3 161 4 q 150 0 157 3 l 46 0 q 28 18 28 0 l 28 772 l 29 782 l 182 935 q 196 940 188 940 l 296 940 q 303 940 301 940 q 308 935 304 939 l 310 933 l 314 922 m 61 35 l 128 35 l 128 754 l 61 754 l 61 35 z "},"j":{"ha":804,"x_min":24,"x_max":763,"o":"m 594 0 l 42 0 q 24 18 24 0 l 24 218 q 24 223 24 221 q 31 233 25 225 l 179 382 q 192 386 183 386 l 292 386 q 304 382 300 386 q 306 379 304 381 q 310 374 308 376 l 310 286 l 476 286 l 476 772 l 478 782 l 632 935 q 640 940 635 938 l 746 940 l 749 939 q 754 936 751 938 q 761 932 757 935 l 763 922 l 763 168 q 757 156 763 161 l 607 6 q 596 1 603 1 l 594 0 m 58 35 l 578 35 l 578 754 l 511 754 l 511 118 q 493 100 511 100 l 142 100 q 132 103 135 100 q 124 114 126 103 l 124 201 l 58 201 l 58 35 z "},"k":{"ha":1011,"x_min":25,"x_max":964,"o":"m 42 0 q 25 18 25 0 l 25 772 l 26 782 l 179 935 q 193 940 185 940 l 293 940 q 297 939 294 940 q 302 936 300 938 q 310 932 304 935 l 311 922 l 311 638 l 678 638 l 678 772 q 678 776 676 774 q 683 785 678 779 l 833 935 l 831 928 q 835 934 832 931 q 843 940 838 938 l 949 939 q 964 926 960 939 l 964 672 q 960 658 964 663 l 871 571 l 963 479 l 964 469 l 964 168 q 960 156 964 160 l 807 3 l 796 0 l 694 0 q 678 18 678 0 l 678 264 q 636 308 657 288 q 594 353 615 329 l 311 353 l 311 168 q 306 156 311 161 l 150 0 l 42 0 m 711 276 q 713 274 711 275 l 713 35 l 779 35 l 779 311 l 683 407 q 683 433 668 418 l 779 528 l 779 754 l 713 754 l 713 571 q 712 566 713 568 q 711 561 711 564 l 613 454 q 607 453 611 454 l 143 453 l 132 454 q 128 458 129 456 q 125 469 125 464 l 125 754 l 58 754 l 58 35 l 125 35 l 125 369 q 143 386 125 386 l 604 386 l 613 383 l 711 276 z "},"l":{"ha":796,"x_min":25,"x_max":763,"o":"m 43 0 q 25 18 25 0 l 25 772 l 26 782 l 179 935 q 193 940 185 940 l 296 939 q 311 926 307 939 l 311 286 l 644 286 l 749 285 q 763 272 758 285 l 763 168 q 758 156 763 160 l 603 0 l 43 0 m 58 35 l 579 35 l 579 100 l 143 100 q 138 101 140 100 q 128 107 136 101 q 126 108 126 107 q 126 110 126 110 q 125 114 125 111 l 125 754 l 58 754 l 58 35 z "},"m":{"ha":1054,"x_min":26,"x_max":1017,"o":"m 313 240 l 313 168 q 312 163 313 167 q 311 157 311 160 l 154 1 l 144 0 l 44 0 q 26 18 26 0 l 26 775 q 29 779 28 776 q 31 783 31 782 q 33 786 32 783 l 179 932 q 194 939 179 939 l 296 939 l 307 936 l 565 486 l 735 785 l 883 932 q 899 939 885 939 l 999 939 l 1014 938 l 1017 922 l 1017 168 q 1011 154 1017 160 l 858 1 l 849 0 l 749 0 q 731 18 731 0 l 731 390 l 610 181 l 460 29 q 446 25 458 25 l 433 28 l 313 240 m 61 33 l 126 33 l 126 575 l 136 585 l 146 586 l 157 583 l 311 314 l 446 76 l 738 585 l 750 586 l 764 583 l 765 568 l 765 33 l 831 33 l 831 754 l 760 754 l 457 231 q 451 227 454 228 q 433 226 449 226 q 432 233 433 232 l 133 754 l 61 754 l 61 33 z "},"n":{"ha":1011,"x_min":31,"x_max":969,"o":"m 953 938 l 968 935 l 969 919 l 969 167 q 965 153 969 157 l 811 0 q 808 -1 810 -1 l 803 -1 l 700 -1 l 693 0 l 317 413 l 317 167 q 311 153 317 158 l 158 0 l 149 -1 l 47 -1 q 31 15 31 -1 l 31 769 l 32 781 l 183 931 q 199 938 185 938 l 300 938 l 308 936 l 685 524 l 685 769 l 686 781 l 840 933 l 839 932 q 844 936 842 935 q 853 938 846 938 l 953 938 m 65 32 l 131 32 l 131 619 l 133 636 q 142 636 140 636 q 146 638 143 636 l 157 636 l 708 32 l 785 32 l 785 751 l 718 751 l 718 164 l 717 149 q 708 149 710 149 q 704 147 707 149 l 693 149 l 142 751 l 65 751 l 65 32 z "},"o":{"ha":1011,"x_min":26,"x_max":965,"o":"m 696 688 q 714 672 714 688 l 714 118 q 696 100 714 100 l 142 101 q 126 114 131 101 l 126 672 q 143 688 126 688 l 696 688 m 679 654 l 311 654 l 311 286 l 679 286 l 679 654 m 181 935 q 194 940 186 940 l 947 940 q 953 940 950 940 q 964 932 957 939 l 965 922 l 965 168 q 961 156 965 160 l 810 6 q 801 0 807 1 l 43 0 q 26 18 26 0 l 26 781 l 181 935 m 60 35 l 779 35 l 779 754 l 60 754 l 60 35 z "},"p":{"ha":1011,"x_min":28,"x_max":967,"o":"m 128 672 q 146 688 128 688 l 697 688 q 715 672 715 688 l 715 481 q 715 476 715 479 q 714 472 714 474 l 619 368 q 610 363 615 364 l 143 364 l 128 367 l 128 672 m 681 654 l 313 654 l 313 549 l 681 549 l 681 654 m 44 0 q 28 18 28 0 l 28 772 l 29 782 l 182 935 q 196 940 188 940 l 949 940 q 955 940 951 940 q 965 932 958 939 l 967 922 l 967 581 q 963 568 967 572 l 657 264 l 656 264 q 653 263 654 264 q 651 263 653 263 l 313 258 l 313 168 q 308 156 313 160 l 153 0 l 44 0 m 61 35 l 128 35 l 128 279 q 146 297 128 297 l 639 297 l 782 439 l 782 754 l 61 754 l 61 35 z "},"q":{"ha":1011,"x_min":28,"x_max":967,"o":"m 46 0 q 28 17 28 0 l 28 771 l 29 782 l 182 935 q 196 939 186 939 l 950 939 l 965 936 l 967 921 l 967 168 q 963 154 967 158 l 807 0 l 46 0 m 61 33 l 782 33 l 782 753 l 61 753 l 61 33 m 697 688 q 715 671 715 688 l 715 117 q 697 100 715 100 l 647 100 l 638 103 l 489 301 l 429 301 q 497 212 461 257 q 564 124 532 167 l 565 117 l 563 107 q 553 101 557 101 q 547 100 550 100 l 138 100 l 128 111 l 128 671 q 146 688 128 688 l 697 688 m 682 453 l 682 653 l 314 653 l 314 285 l 399 285 q 390 297 396 290 q 381 310 383 304 l 379 319 l 382 328 l 535 482 q 547 488 540 488 l 649 488 l 653 488 q 655 487 654 488 q 657 486 656 486 l 682 453 z "},"r":{"ha":1011,"x_min":28,"x_max":967,"o":"m 951 939 q 967 926 963 939 l 967 581 q 963 568 967 572 l 819 426 q 893 299 856 363 q 967 171 931 235 l 965 158 l 808 1 l 799 0 l 683 0 q 677 1 681 0 q 668 10 674 3 l 521 263 l 313 258 l 313 168 q 308 156 313 160 l 158 6 q 149 0 154 1 l 44 0 q 28 18 28 0 l 28 772 l 29 782 l 182 935 q 196 940 188 940 l 849 940 l 951 939 m 768 35 l 632 272 l 631 279 q 635 292 631 286 l 781 439 l 781 754 l 61 754 l 61 35 l 128 35 l 128 279 q 144 297 128 297 l 533 296 l 544 293 l 692 35 l 768 35 m 619 368 q 610 363 615 364 l 143 364 q 128 376 132 364 l 128 672 q 144 688 128 688 l 697 688 q 715 672 715 688 l 715 481 q 715 476 715 479 q 714 472 714 474 l 619 368 m 681 654 l 313 654 l 313 549 l 681 549 l 681 654 z "},"s":{"ha":1011,"x_min":29,"x_max":969,"o":"m 867 610 l 960 610 q 965 605 963 607 q 969 596 967 603 l 969 163 l 967 160 q 965 156 965 158 q 963 153 964 154 l 815 7 q 801 0 815 0 l 46 0 q 29 17 29 0 l 29 218 l 31 228 l 126 324 l 46 324 q 29 340 29 324 l 29 771 l 31 781 l 186 936 q 188 938 186 938 q 193 939 190 938 l 960 939 q 965 933 963 936 q 969 925 967 931 l 969 721 q 964 708 969 714 l 867 610 m 315 324 l 315 285 l 683 285 l 683 324 l 315 324 m 64 33 l 783 33 l 783 425 l 147 425 l 143 426 q 134 428 136 426 q 129 438 132 429 l 129 671 q 147 688 129 688 l 700 688 q 717 671 717 688 l 717 588 l 783 588 l 783 753 l 64 753 l 64 358 l 700 358 q 717 340 717 358 l 717 117 q 700 100 717 100 l 139 100 q 134 105 136 103 q 129 114 132 107 l 129 201 l 64 201 l 64 33 m 315 653 l 315 610 l 683 610 l 683 653 l 315 653 z "},"t":{"ha":889,"x_min":22,"x_max":849,"o":"m 849 819 l 847 810 l 692 654 l 681 651 l 579 651 l 579 168 q 578 161 579 163 q 574 156 578 160 l 421 1 l 419 1 q 417 1 418 1 q 415 0 417 0 l 310 0 q 293 18 293 0 l 293 651 l 39 651 q 22 669 22 651 l 22 772 l 24 782 l 178 935 l 175 928 q 179 934 176 931 q 188 940 182 938 l 835 939 q 840 938 839 939 q 849 931 842 938 l 849 819 m 57 686 l 310 686 q 326 669 326 686 l 326 35 l 393 35 l 393 669 q 411 686 393 686 l 664 686 l 664 754 l 57 754 l 57 686 z "},"u":{"ha":1011,"x_min":31,"x_max":969,"o":"m 32 782 l 185 935 q 199 940 190 940 l 299 940 l 303 940 q 308 938 306 940 q 313 935 313 938 q 317 926 314 933 l 317 286 l 685 286 l 685 772 l 686 782 l 839 935 q 849 940 842 938 l 953 940 l 957 938 q 968 935 967 938 q 969 922 969 933 l 969 168 q 965 156 969 160 l 811 1 q 806 0 810 1 l 47 0 q 31 18 31 0 l 31 772 l 32 782 m 64 35 l 785 35 l 785 754 l 718 754 l 718 118 q 700 100 718 100 l 146 101 q 131 114 135 101 l 131 754 l 64 754 l 64 35 z "},"v":{"ha":1011,"x_min":31,"x_max":969,"o":"m 32 342 l 31 351 l 31 769 l 32 781 l 186 933 l 185 932 q 190 936 188 935 q 199 938 192 938 l 307 938 q 312 933 310 935 q 317 924 314 931 l 317 553 l 576 293 l 685 401 l 685 769 l 686 781 l 842 936 l 844 936 q 849 938 847 936 l 960 938 l 969 926 l 969 501 l 968 493 l 475 0 l 472 0 q 470 -1 471 0 q 468 -1 469 -1 l 383 -1 l 374 0 l 32 342 m 442 108 q 424 99 439 99 q 407 108 410 99 q 374 141 396 119 q 325 190 351 163 q 269 246 299 217 q 213 302 239 275 q 165 351 186 329 q 132 383 143 372 l 131 393 l 131 753 l 64 753 l 64 360 l 392 32 l 458 32 l 785 360 l 785 753 l 718 753 l 718 393 l 717 383 l 442 108 z "},"w":{"ha":1183,"x_min":24,"x_max":1143,"o":"m 24 354 l 24 772 l 25 782 l 178 935 q 188 940 181 938 l 294 939 q 310 926 306 939 l 310 538 q 365 447 340 489 q 421 357 390 406 l 440 386 l 440 775 q 442 779 440 776 q 444 783 443 782 q 446 786 444 783 l 593 932 q 604 940 593 938 l 711 939 q 726 926 722 939 l 726 538 q 782 447 757 489 q 839 357 807 406 l 857 386 l 857 772 l 858 782 l 1013 935 q 1022 940 1015 938 l 1129 939 q 1143 922 1143 939 l 1143 499 l 928 154 l 776 1 l 767 0 l 667 0 q 654 4 658 0 l 536 193 l 513 156 l 358 1 l 349 0 l 249 0 q 244 0 247 -1 q 235 6 243 0 l 26 344 l 35 339 l 24 354 m 310 113 q 299 110 307 110 q 293 110 294 110 q 285 115 292 111 l 125 376 l 124 382 l 124 754 l 57 754 l 57 358 q 158 197 108 275 q 260 35 208 118 l 339 35 l 497 289 l 508 289 l 518 286 l 553 235 l 675 35 l 756 35 l 958 358 l 958 754 l 892 754 l 892 382 l 890 376 l 728 111 l 725 111 q 722 110 724 111 q 719 110 721 110 q 704 114 708 110 l 542 376 l 540 382 l 540 754 l 475 754 l 475 383 q 471 371 475 375 l 472 374 l 436 315 l 310 113 z "},"x":{"ha":1011,"x_min":29,"x_max":968,"o":"m 46 0 q 29 17 29 0 l 29 319 l 31 328 l 121 419 l 31 508 l 31 510 q 30 512 31 511 q 29 515 29 513 l 29 771 l 31 782 l 185 935 l 183 933 q 188 938 186 936 q 197 939 190 939 l 306 939 q 310 934 308 936 q 315 925 313 932 l 315 638 l 683 638 l 683 771 l 685 782 l 839 935 l 838 933 q 842 938 840 936 q 851 939 844 939 l 951 939 l 967 938 l 967 932 q 968 925 967 926 l 968 671 l 967 661 l 875 569 l 967 479 l 968 469 l 968 168 l 967 157 l 810 1 q 807 0 808 0 l 801 0 l 699 0 q 683 17 683 0 l 683 268 l 600 351 l 315 351 l 315 168 q 315 162 315 165 q 310 154 314 158 l 156 0 l 46 0 m 160 432 q 158 406 174 415 l 63 311 l 63 33 l 129 33 l 129 276 l 131 288 l 225 382 q 235 386 228 383 l 611 386 q 615 383 613 385 q 622 381 621 381 l 713 289 q 714 286 713 288 q 717 276 717 281 l 717 33 l 783 33 l 783 311 l 689 406 q 688 432 669 414 l 783 528 l 783 754 l 717 754 l 717 561 l 715 551 l 621 457 q 617 454 619 454 q 611 451 615 454 l 239 451 q 225 457 231 451 l 179 503 l 131 551 q 129 558 131 554 l 129 754 l 63 754 l 63 528 l 160 432 z "},"y":{"ha":1011,"x_min":31,"x_max":971,"o":"m 953 939 l 957 938 q 966 936 964 938 q 971 926 968 935 l 971 671 l 969 661 l 814 507 l 667 360 q 665 355 667 356 q 656 351 663 354 l 643 351 l 643 168 l 642 157 l 486 1 q 481 1 485 1 q 475 0 478 0 l 375 0 q 357 17 357 0 l 357 351 l 199 351 q 194 351 197 350 q 186 357 192 351 l 39 504 q 31 515 33 504 l 31 771 q 31 776 31 774 q 38 786 32 778 l 189 938 l 199 939 l 299 939 l 303 938 q 312 936 310 938 q 317 926 314 935 l 317 721 l 400 638 l 685 638 l 685 771 q 690 785 685 779 l 843 938 l 853 939 l 953 939 m 785 528 l 785 754 l 719 754 l 719 561 q 719 557 719 558 q 713 547 718 556 l 624 457 q 614 451 619 453 l 240 451 q 228 457 233 451 l 136 549 q 131 558 132 551 l 131 754 l 65 754 l 65 528 l 207 386 l 375 386 q 393 369 393 386 l 393 33 l 458 33 l 458 369 q 475 386 458 386 l 643 386 l 785 528 z "},"z":{"ha":1011,"x_min":29,"x_max":969,"o":"m 182 932 q 193 940 182 938 l 956 939 l 957 939 q 959 938 958 939 q 961 938 960 938 q 966 935 965 938 q 969 926 967 933 l 969 722 q 969 716 969 719 q 964 708 968 713 l 811 557 l 422 286 l 743 286 l 840 385 q 847 386 843 385 l 960 386 q 965 381 963 383 q 969 374 967 379 l 969 168 q 969 161 969 163 q 964 156 968 160 l 810 1 l 806 0 l 46 0 q 29 18 29 0 l 29 171 l 32 181 l 186 336 l 644 654 l 256 654 l 157 556 l 147 554 l 46 554 q 29 569 29 554 l 29 775 q 32 779 31 776 q 34 783 33 782 q 36 786 35 783 l 182 932 m 783 581 l 783 754 l 64 754 l 64 588 l 129 588 l 129 671 q 147 688 129 688 l 700 688 q 717 671 717 688 l 717 621 l 714 611 l 64 160 l 64 33 l 783 33 l 783 201 l 717 201 l 717 118 q 700 100 717 100 l 147 100 q 142 101 144 100 q 131 108 140 101 l 131 119 l 132 131 l 783 581 z "},"?":{"ha":1011,"x_min":26,"x_max":965,"o":"m 43 554 q 26 569 26 554 l 26 772 l 28 782 l 181 935 l 178 928 q 182 934 179 931 q 190 940 185 938 l 953 939 q 956 938 954 938 q 958 937 957 938 q 963 936 960 936 q 964 933 964 935 q 965 926 964 928 l 965 671 l 964 661 l 808 497 l 638 406 l 638 396 l 636 385 l 481 229 q 476 228 479 229 q 469 228 472 228 l 369 228 q 351 244 351 228 l 353 394 l 354 404 l 510 558 l 679 650 l 679 654 l 251 654 l 151 554 l 43 554 m 126 588 l 126 672 q 143 688 126 688 l 696 688 q 714 672 714 688 l 713 568 l 710 558 l 388 383 l 388 263 l 453 263 q 453 299 453 279 q 454 336 454 319 l 457 347 l 779 521 l 779 754 l 60 754 l 60 588 l 126 588 m 638 168 l 636 158 l 479 1 l 469 0 l 369 0 q 351 18 351 0 l 351 118 q 351 122 350 119 q 357 131 351 125 l 508 281 l 506 274 q 510 280 507 276 q 517 286 513 283 l 624 285 q 638 272 633 285 l 638 168 m 413 136 l 463 136 q 518 192 492 164 q 576 251 544 219 l 528 251 l 413 136 m 388 35 l 453 35 l 453 100 l 388 100 l 388 35 z "},":":{"ha":346,"x_min":26,"x_max":314,"o":"m 46 654 q 28 672 28 654 l 28 772 q 28 776 26 774 q 33 785 28 779 l 181 932 q 192 940 181 938 l 296 940 q 301 940 299 940 q 311 933 303 939 q 313 932 313 933 q 314 926 313 928 l 314 822 l 311 813 l 156 656 l 154 656 q 152 655 153 656 q 150 654 151 654 l 46 654 m 63 688 l 128 688 l 128 754 l 63 754 l 63 688 m 46 0 q 28 18 28 0 l 28 118 q 33 131 28 125 l 185 283 q 186 285 185 285 q 192 286 189 285 l 296 286 l 313 285 q 313 276 313 278 q 314 272 313 275 l 314 168 l 313 158 l 161 8 q 159 3 161 4 q 150 0 157 3 l 46 0 m 63 35 l 128 35 l 128 100 l 63 100 l 63 35 z "},";":{"ha":346,"x_min":26,"x_max":313,"o":"m 44 -100 q 26 -83 26 -100 l 26 118 l 28 128 l 183 285 q 190 286 186 285 l 294 286 l 304 285 q 313 272 310 279 l 313 68 q 307 56 313 61 l 157 -94 q 153 -97 156 -97 q 147 -100 151 -97 l 44 -100 m 126 -65 l 126 100 l 60 100 l 60 -65 l 126 -65 m 44 654 q 26 672 26 654 l 26 772 l 28 782 l 181 935 q 190 940 183 938 l 294 940 l 299 940 q 304 938 301 940 q 309 935 308 938 q 313 926 310 933 l 313 822 q 307 810 313 821 l 154 656 l 151 656 q 149 655 150 656 q 147 654 149 654 l 44 654 m 60 689 l 126 689 l 126 754 l 60 754 l 60 689 z "},"D":{"ha":1011,"x_min":29,"x_max":968,"o":"m 586 106 q 576 100 582 101 l 144 101 q 129 114 133 101 l 129 672 q 147 688 129 688 l 575 688 l 582 686 l 715 540 l 717 532 l 717 258 l 715 250 l 586 106 m 315 654 l 315 286 l 683 286 l 683 525 l 567 654 l 315 654 m 46 0 q 29 18 29 0 l 29 772 l 31 782 l 183 933 q 197 940 188 940 l 757 940 q 761 938 758 939 q 765 935 764 936 q 768 933 765 935 l 967 732 l 968 722 l 968 369 l 967 360 l 813 206 l 813 207 l 633 10 q 622 0 633 4 l 46 0 m 64 35 l 611 35 l 783 225 l 783 564 l 611 754 l 64 754 l 64 35 z "},"!":{"ha":353,"x_min":29,"x_max":315,"o":"m 47 0 q 29 18 29 0 l 29 121 q 32 125 31 122 q 34 128 33 128 q 36 132 35 129 l 182 278 q 193 286 182 283 l 300 285 q 315 272 311 285 l 315 168 l 314 157 l 156 0 l 47 0 m 64 33 l 129 33 l 129 100 l 64 100 l 64 33 m 47 226 q 29 244 29 226 l 29 771 q 35 785 29 779 l 188 938 l 197 939 l 300 939 q 315 926 311 939 l 315 394 l 314 385 l 163 235 q 160 230 163 231 q 151 226 158 229 l 47 226 m 64 263 l 129 263 l 129 754 l 64 754 l 64 263 z "},".":{"ha":336,"x_min":22,"x_max":308,"o":"m 140 0 l 40 0 q 22 18 22 0 l 22 124 l 28 131 l 181 285 l 183 285 q 188 286 186 285 l 299 286 l 308 274 l 308 168 l 307 158 l 150 1 l 140 0 m 57 35 l 124 35 l 124 100 l 57 100 l 57 35 z "},",":{"ha":344,"x_min":26,"x_max":313,"o":"m 44 -100 q 26 -83 26 -100 l 26 118 l 28 128 l 183 285 q 190 286 186 285 l 294 286 l 304 285 q 313 272 310 279 l 313 68 q 307 56 313 61 l 157 -94 q 153 -97 156 -97 q 147 -100 151 -97 l 44 -100 m 126 -65 l 126 100 l 60 100 l 60 -65 l 126 -65 z "},"B":{"ha":1011,"x_min":26,"x_max":965,"o":"m 797 0 l 43 0 q 26 18 26 0 l 26 772 l 28 782 l 181 935 q 193 940 186 940 l 958 940 l 958 939 l 963 939 l 965 922 l 965 672 q 961 658 965 663 l 872 571 l 961 482 q 965 469 965 475 l 965 168 q 961 156 965 160 l 810 6 q 800 1 807 1 l 797 0 m 60 35 l 779 35 l 779 311 l 685 407 q 679 419 679 413 q 685 433 679 428 l 779 528 l 779 754 l 60 754 l 60 35 m 708 290 q 714 278 714 285 l 714 118 q 696 100 714 100 l 142 101 q 126 114 131 101 l 126 369 q 143 386 126 386 l 604 386 l 615 385 l 708 290 m 311 353 l 311 286 l 663 286 l 596 353 l 311 353 m 140 454 q 131 456 133 454 q 126 465 129 457 l 126 672 q 143 688 126 688 l 696 688 q 714 672 714 688 l 714 561 q 708 550 714 556 l 615 454 q 610 453 614 454 q 604 453 607 453 l 143 453 l 140 454 m 679 654 l 311 654 l 311 638 l 679 638 l 679 654 z "},"C":{"ha":1011,"x_min":26,"x_max":965,"o":"m 797 0 l 43 0 q 26 18 26 0 l 26 772 l 28 782 l 181 935 q 194 940 186 940 l 951 940 q 956 938 953 939 q 959 935 958 936 q 963 933 960 935 q 964 932 964 933 q 965 926 964 928 l 965 722 q 961 708 965 713 l 808 556 q 803 555 807 556 q 797 554 800 554 l 696 554 q 679 571 679 554 l 679 654 l 313 654 l 313 286 l 739 286 l 835 382 q 847 386 839 386 l 949 386 l 964 383 l 965 369 l 965 168 q 961 156 965 160 l 810 6 q 800 1 807 1 l 797 0 m 60 35 l 781 35 l 781 201 l 714 201 l 714 118 q 696 100 714 100 l 144 100 q 138 101 142 100 q 128 108 135 101 l 126 118 l 126 672 q 144 688 126 688 l 696 688 q 714 672 714 688 l 714 588 l 781 588 l 781 754 l 60 754 l 60 35 z "},"A":{"ha":1011,"x_min":29,"x_max":968,"o":"m 147 401 q 138 404 140 401 q 129 415 132 406 l 129 671 q 147 688 129 688 l 699 688 q 717 671 717 688 l 717 419 q 699 401 717 401 l 147 401 m 683 653 l 315 653 l 315 588 l 683 588 l 683 653 m 46 0 q 29 17 29 0 l 29 771 l 31 782 l 182 932 q 197 939 183 939 l 965 939 l 965 933 q 968 925 965 928 l 968 168 q 964 154 968 158 l 810 1 q 807 0 808 0 l 801 0 l 699 0 q 683 17 683 0 l 683 301 l 315 301 l 315 168 q 310 154 315 160 l 156 0 l 46 0 m 64 33 l 129 33 l 129 319 q 147 336 129 336 l 699 336 q 717 319 717 336 l 717 33 l 783 33 l 783 754 l 64 754 l 64 33 z "}}}
